<?xml version="1.0" standalone="no"?>
<!DOCTYPE svg PUBLIC "-//W3C//DTD SVG 20010904//EN"
 "http://www.w3.org/TR/2001/REC-SVG-20010904/DTD/svg10.dtd">
<svg version="1.0" xmlns="http://www.w3.org/2000/svg"
 width="512.000000pt" height="512.000000pt" viewBox="0 0 512.000000 512.000000"
 preserveAspectRatio="xMidYMid meet">
<metadata>
Created by potrace 1.14, written by Peter Selinger 2001-2017
</metadata>
<g transform="translate(0.000000,512.000000) scale(0.100000,-0.100000)"
fill="#000000" stroke="none">
<path d="M2409 5116 c-2 -2 -24 -6 -49 -9 -144 -18 -347 -91 -396 -144 -16
-17 -21 -33 -18 -56 4 -29 -1 -35 -43 -64 -27 -18 -61 -44 -76 -57 -24 -21
-33 -23 -52 -14 -54 24 -98 -10 -194 -153 -61 -91 -103 -171 -130 -253 l-17
-49 -120 -2 c-136 -3 -242 -26 -347 -73 -249 -114 -428 -327 -497 -592 -31
-118 -32 -300 -2 -420 40 -157 140 -327 254 -430 82 -75 101 -88 179 -129 204
-108 218 -110 958 -110 338 -1 617 -4 620 -7 3 -3 6 -106 6 -229 l0 -224 -33
-6 c-46 -8 -153 -66 -196 -105 -76 -70 -130 -174 -142 -277 -6 -48 -12 -58
-83 -130 -42 -43 -85 -91 -96 -107 l-20 -28 -59 58 c-72 71 -143 177 -181 270
-31 76 -55 104 -90 104 -38 0 -57 -11 -70 -43 -10 -25 -10 -38 3 -76 47 -140
189 -339 305 -428 l28 -22 -17 -63 c-20 -78 -21 -84 -23 -185 l-1 -83 -196 0
c-165 0 -200 -3 -224 -17 -44 -26 -45 -86 -2 -121 12 -9 71 -12 218 -12 l202
0 0 -73 c0 -39 5 -101 12 -136 l11 -63 -55 -50 c-108 -97 -210 -248 -255 -379
-26 -76 -8 -116 54 -126 32 -6 63 17 79 58 51 126 102 210 183 298 l50 53 40
-63 c100 -157 264 -277 446 -325 73 -20 241 -27 312 -13 212 39 391 158 508
337 l41 63 58 -63 c65 -71 120 -160 160 -256 38 -95 94 -119 142 -62 25 30 25
31 9 83 -34 118 -124 259 -235 370 l-78 79 10 61 c5 34 11 94 12 132 l3 70
195 2 c204 3 234 9 247 47 13 40 11 49 -17 78 -29 29 -30 29 -142 28 -62 -1
-152 -1 -200 -1 l-87 1 0 78 c0 82 -3 103 -26 195 l-15 58 33 27 c93 76 185
190 245 305 70 133 80 187 41 220 -22 18 -55 22 -84 11 -9 -4 -37 -50 -61
-102 -51 -110 -113 -200 -187 -272 l-52 -51 -24 33 c-14 18 -58 66 -98 106
-54 54 -73 80 -73 100 -2 139 -115 308 -251 372 -35 16 -78 33 -94 36 l-30 5
0 224 c0 123 3 226 6 229 3 4 129 6 279 7 166 0 281 4 293 10 10 6 23 23 28
38 9 26 10 26 105 26 94 0 96 -1 110 -27 8 -15 23 -32 33 -38 21 -11 537 -8
581 3 14 4 46 12 73 18 26 6 50 15 53 20 3 5 13 9 23 9 26 0 170 93 223 144
155 150 232 331 231 541 -1 134 -25 233 -83 344 -112 215 -299 346 -566 396
-10 2 -93 4 -185 4 l-165 1 -17 106 c-38 237 -147 470 -291 624 -142 151 -367
269 -605 317 -69 14 -342 29 -352 19z"/>
</g>
</svg>
